<?xml version="1.0" standalone="no"?>
<!DOCTYPE svg PUBLIC "-//W3C//DTD SVG 20010904//EN"
 "http://www.w3.org/TR/2001/REC-SVG-20010904/DTD/svg10.dtd">
<svg version="1.0" xmlns="http://www.w3.org/2000/svg"
 width="771.000000pt" height="771.000000pt" viewBox="0 0 771.000000 771.000000"
 preserveAspectRatio="xMidYMid meet">
<metadata>
Created by potrace 1.11, written by Peter Selinger 2001-2013
</metadata>
<g transform="translate(0.000000,771.000000) scale(0.100000,-0.100000)"
fill="#000000" stroke="none">
<path d="M4412 7163 c-6 -21 -32 -146 -57 -278 -26 -132 -48 -245 -50 -252 -3
-10 -14 -9 -46 2 -82 29 -497 145 -609 171 -140 31 -339 68 -480 88 -186 27
-567 60 -555 48 2 -2 51 -32 109 -66 58 -33 145 -92 193 -131 85 -67 266 -235
260 -241 -1 -1 -61 -8 -132 -14 -608 -51 -1115 -165 -1542 -347 -122 -52 -151
-73 -102 -73 66 0 591 -133 770 -196 136 -47 315 -132 303 -143 -5 -5 -36 -16
-69 -25 -425 -119 -938 -326 -1247 -505 -178 -103 -344 -235 -446 -356 -65
-76 -152 -262 -114 -243 221 109 304 138 459 159 206 27 436 -30 529 -133 56
-62 51 -70 -94 -142 -113 -56 -190 -97 -327 -176 -151 -86 -396 -266 -524
-385 -313 -291 -499 -575 -585 -896 -25 -96 -60 -301 -54 -319 2 -6 40 34 86
89 89 108 259 261 376 338 145 97 375 198 513 228 l33 7 -34 -79 c-18 -43 -42
-97 -53 -118 -47 -93 -164 -432 -222 -645 -84 -308 -124 -682 -102 -964 12
-161 50 -399 69 -432 8 -15 11 -12 17 17 18 83 101 355 147 478 271 728 690
1293 1190 1603 58 36 83 47 91 39 8 -8 5 -19 -11 -38 -26 -34 -150 -219 -224
-333 -235 -366 -465 -866 -596 -1300 -23 -74 -48 -163 -56 -198 l-14 -63 26
-25 c60 -55 279 -192 397 -248 267 -127 467 -200 720 -264 173 -44 383 -87
390 -81 2 2 -2 49 -10 104 -86 631 -8 1380 215 2056 78 234 218 565 308 724
21 39 54 97 72 130 18 33 70 116 115 185 249 374 531 653 818 810 l78 43 -25
26 c-22 23 -45 82 -60 152 l-6 26 -72 -14 c-257 -48 -598 -188 -858 -352 -114
-72 -226 -150 -252 -173 -7 -7 -47 -40 -88 -73 -185 -147 -466 -459 -587 -651
-15 -24 -31 -44 -35 -44 -4 0 2 32 13 72 119 428 469 931 924 1326 166 144
395 307 538 382 37 19 67 38 67 41 0 3 -30 29 -66 58 -182 146 -495 306 -803
410 -95 32 -351 102 -426 116 l-40 8 35 8 c144 33 795 35 1100 5 373 -38 740
-113 1036 -211 207 -69 574 -238 574 -264 0 -5 -44 -11 -97 -13 -158 -9 -362
-73 -511 -160 -31 -18 -91 -67 -133 -108 -82 -83 -124 -154 -154 -263 -17 -64
-17 -69 0 -112 34 -90 114 -117 400 -135 311 -20 458 -44 595 -98 62 -24 180
-91 180 -102 0 -3 -62 -5 -138 -5 -145 0 -230 -13 -352 -52 -203 -65 -380
-221 -481 -423 -57 -114 -64 -146 -64 -275 0 -102 5 -133 27 -205 75 -237 264
-536 526 -830 184 -208 493 -496 727 -679 81 -64 382 -274 446 -311 189 -111
383 -201 502 -231 43 -12 80 -19 82 -17 2 1 -24 32 -56 68 -33 36 -124 142
-202 235 -126 150 -232 280 -666 820 -92 114 -152 185 -264 311 -26 29 -36 33
-100 39 -298 27 -674 167 -632 236 16 25 76 39 170 39 312 0 893 -183 1049
-330 l53 -50 39 43 c21 24 49 55 60 69 12 14 35 33 51 43 16 9 40 33 53 53 35
50 35 173 2 247 -35 77 -57 95 -114 95 l-48 0 0 108 c0 60 -3 112 -6 115 -4 4
-19 -13 -34 -36 -42 -65 -120 -147 -141 -147 -42 0 -267 83 -317 117 -87 59
-238 208 -255 252 -9 22 -20 42 -25 45 -12 7 -114 -21 -179 -49 -38 -17 -60
-22 -71 -16 -45 24 -102 119 -102 169 0 42 53 118 107 153 70 44 144 62 252
63 l95 1 60 -97 c84 -134 83 -133 139 -114 117 39 298 40 517 0 103 -18 260
-88 260 -115 0 -38 -44 -128 -100 -204 -32 -44 -57 -81 -55 -83 8 -9 121 49
230 117 186 116 182 112 145 146 -21 19 -26 40 -11 49 5 3 38 -10 74 -29 l65
-35 110 35 c211 67 412 160 552 256 98 67 145 112 137 132 -3 8 -27 20 -54 26
-60 16 -305 114 -443 179 -125 58 -320 170 -445 256 -106 72 -281 243 -311
305 l-22 43 34 100 c42 124 43 160 7 195 -135 126 -434 344 -705 513 -192 120
-399 237 -533 302 -60 29 -112 54 -114 55 -2 2 15 74 37 162 23 87 42 162 42
165 0 7 -143 -68 -212 -111 -21 -13 -41 -23 -45 -23 -5 0 -48 55 -98 122 -49
66 -130 176 -180 243 -49 67 -121 165 -160 218 -38 53 -73 97 -76 97 -3 0 -11
-17 -17 -37z m1233 -1887 c118 -56 212 -136 331 -282 20 -24 34 -47 32 -50 -6
-5 -196 25 -353 57 -320 65 -488 138 -455 199 13 24 58 56 117 82 73 33 102
38 183 33 58 -4 91 -13 145 -39z"/>
<path d="M4323 4541 c-369 -246 -637 -589 -846 -1081 -115 -271 -228 -713
-271 -1060 -59 -470 -63 -1090 -10 -1590 8 -80 17 -152 20 -161 3 -11 34 -22
102 -37 334 -74 761 -121 1090 -122 157 0 533 24 600 38 l33 7 -62 85 c-35 47
-86 117 -114 155 -75 101 -250 370 -342 526 -153 258 -211 369 -356 680 -70
150 -181 466 -231 659 -101 385 -114 779 -36 1106 42 180 187 486 272 576 7 7
40 46 72 86 32 40 93 104 135 142 42 38 73 70 69 70 -4 0 -60 -35 -125 -79z"/>
<path d="M4354 4256 c-58 -72 -110 -162 -154 -266 -152 -357 -123 -818 89
-1378 208 -550 619 -1223 1124 -1840 60 -72 115 -132 124 -132 23 0 154 46
270 95 288 123 569 301 791 503 l83 75 -113 56 c-495 248 -1193 780 -1581
1206 -55 61 -117 128 -137 150 -57 63 -211 271 -274 370 -123 194 -218 422
-252 605 -24 128 -15 336 20 453 15 49 33 102 42 119 24 46 13 41 -32 -16z"/>
</g>
</svg>
