<?xml version="1.0" standalone="no"?>
<!DOCTYPE svg PUBLIC "-//W3C//DTD SVG 20010904//EN"
 "http://www.w3.org/TR/2001/REC-SVG-20010904/DTD/svg10.dtd">
<svg version="1.0" xmlns="http://www.w3.org/2000/svg"
 width="771.000000pt" height="771.000000pt" viewBox="0 0 771.000000 771.000000"
 preserveAspectRatio="xMidYMid meet">
<metadata>
Created by potrace 1.11, written by Peter Selinger 2001-2013
</metadata>
<g transform="translate(0.000000,771.000000) scale(0.100000,-0.100000)"
fill="#000000" stroke="none">
<path d="M4413 7177 c-4 -18 -8 -36 -8 -42 0 -5 -4 -16 -8 -22 -5 -7 -6 -13
-3 -13 2 0 -2 -27 -10 -60 -8 -33 -16 -75 -18 -93 -3 -17 -7 -42 -11 -54 -15
-66 -26 -119 -30 -153 -2 -23 -10 -59 -21 -101 -4 -15 -10 -14 -62 3 -31 11
-64 21 -72 23 -8 2 -43 12 -77 23 -35 11 -63 18 -63 15 0 -3 -6 -1 -12 5 -7 5
-40 15 -72 22 -33 7 -69 16 -80 20 -56 22 -66 25 -123 32 -7 1 -13 4 -13 7 0
5 -32 11 -82 14 -10 1 -18 4 -18 7 0 3 -10 7 -22 8 -34 3 -52 7 -63 13 -5 3
-28 7 -50 8 -22 2 -42 6 -45 9 -3 4 -16 8 -30 9 -32 3 -77 10 -115 18 -16 4
-41 8 -55 9 -29 3 -113 16 -150 22 -14 3 -45 7 -70 9 -25 2 -72 7 -105 10 -63
6 -145 12 -257 19 -74 5 -76 -7 -8 -34 19 -8 37 -16 40 -19 8 -10 43 -31 76
-46 17 -7 36 -21 44 -29 7 -9 18 -16 25 -16 8 0 15 -3 17 -8 2 -4 39 -36 83
-72 87 -69 237 -211 231 -217 -2 -2 -32 -6 -67 -8 -143 -8 -235 -18 -244 -26
-6 -4 -17 -4 -25 1 -8 5 -18 6 -23 3 -5 -3 -21 -7 -36 -8 -45 -4 -135 -16
-161 -20 -14 -3 -43 -7 -65 -10 -39 -5 -75 -12 -85 -15 -3 -1 -8 -2 -13 -1 -4
1 -26 -3 -50 -8 -23 -6 -58 -13 -77 -16 -19 -3 -42 -8 -50 -10 -8 -2 -27 -7
-42 -10 -16 -3 -40 -8 -55 -11 -16 -4 -36 -7 -45 -8 -10 0 -18 -3 -18 -6 0 -4
-6 -7 -12 -7 -22 0 -145 -33 -181 -48 -19 -8 -37 -11 -41 -8 -3 4 -6 2 -6 -3
0 -5 -8 -10 -18 -11 -9 -1 -37 -9 -62 -18 -25 -9 -49 -17 -55 -19 -52 -14 -95
-30 -95 -35 0 -4 -10 -7 -21 -8 -12 -1 -41 -11 -65 -22 -24 -12 -51 -21 -59
-21 -8 0 -15 -4 -15 -10 0 -5 -5 -10 -11 -10 -5 0 -29 -8 -52 -19 -23 -10 -49
-20 -56 -23 -8 -2 6 -10 32 -16 80 -20 131 -32 157 -36 14 -3 25 -5 25 -6 0
-2 36 -9 65 -13 14 -2 32 -7 39 -11 7 -4 15 -5 18 -2 3 3 12 1 20 -5 7 -6 13
-9 13 -6 0 4 18 0 40 -8 22 -8 43 -14 45 -14 15 1 100 -20 155 -39 21 -7 42
-12 63 -14 9 -1 17 -6 17 -10 0 -4 8 -8 18 -8 19 0 167 -51 227 -79 22 -10 50
-22 63 -25 12 -4 22 -11 22 -16 0 -5 7 -7 15 -4 8 4 15 2 15 -2 0 -5 14 -15
31 -23 17 -7 27 -17 22 -21 -7 -7 -82 -30 -145 -45 -75 -17 -544 -182 -593
-208 -11 -6 -29 -12 -39 -14 -11 -2 -24 -7 -30 -12 -6 -5 -22 -12 -36 -16 -14
-4 -79 -33 -145 -65 -66 -31 -135 -63 -153 -71 -17 -8 -32 -18 -32 -22 0 -5
-4 -6 -9 -2 -5 3 -12 1 -15 -4 -3 -5 -34 -23 -68 -41 -35 -18 -70 -39 -79 -46
-8 -8 -19 -14 -23 -14 -7 0 -161 -106 -221 -152 -31 -24 -129 -121 -182 -180
-30 -35 -64 -91 -62 -104 0 -4 -4 -10 -9 -13 -13 -8 -46 -75 -33 -67 5 4 4 -6
-4 -21 -8 -15 -11 -29 -6 -31 5 -1 42 14 83 36 71 36 171 77 213 87 11 2 38 9
60 15 58 15 138 23 235 23 95 -1 126 -5 226 -32 115 -31 236 -134 206 -177 -4
-5 -61 -36 -127 -69 -66 -32 -123 -62 -126 -67 -3 -5 -10 -10 -15 -10 -12 0
-88 -39 -94 -48 -3 -3 -20 -13 -38 -21 -17 -8 -32 -16 -32 -20 0 -3 -16 -11
-35 -19 -19 -8 -35 -17 -35 -21 0 -4 -9 -10 -19 -14 -11 -3 -49 -28 -86 -55
-36 -28 -68 -50 -71 -50 -8 0 -78 -54 -82 -62 -2 -5 -8 -8 -13 -8 -11 0 -25
-11 -69 -53 -17 -16 -30 -27 -30 -24 0 18 -288 -267 -345 -341 -21 -29 -43
-52 -47 -52 -4 0 -8 -4 -8 -10 0 -5 -27 -48 -60 -95 -33 -47 -60 -90 -60 -95
0 -6 -5 -10 -11 -10 -5 0 -8 -4 -4 -9 3 -5 1 -12 -5 -16 -5 -3 -20 -27 -31
-53 -61 -132 -78 -172 -73 -172 2 0 0 -9 -7 -21 -21 -41 -68 -232 -74 -309 -2
-19 -4 -35 -5 -35 -5 0 -7 -81 -3 -88 3 -4 21 14 41 40 51 68 195 223 206 223
3 0 14 8 24 18 10 9 40 35 66 57 27 22 54 46 62 53 7 6 17 12 23 12 6 0 11 5
11 10 0 6 5 10 11 10 6 0 30 14 54 30 102 70 349 178 447 195 17 3 33 7 36 8
4 1 8 -1 9 -5 2 -9 -31 -89 -53 -130 -8 -16 -12 -28 -7 -28 4 0 3 -4 -2 -8
-10 -6 -27 -43 -56 -117 -7 -16 -13 -32 -13 -35 -1 -3 -5 -11 -9 -17 -5 -7 -6
-13 -2 -13 3 0 0 -10 -7 -22 -7 -13 -12 -25 -13 -28 0 -4 -24 -71 -42 -120 -3
-8 -7 -19 -8 -25 -4 -14 -36 -117 -42 -135 -4 -8 -7 -19 -8 -25 -2 -5 -10 -37
-20 -70 -23 -84 -53 -207 -60 -247 -3 -18 -8 -46 -12 -63 -4 -16 -7 -32 -8
-35 -1 -3 -5 -32 -9 -65 -4 -33 -10 -75 -13 -94 -2 -18 -7 -54 -10 -80 -7 -67
-12 -454 -5 -465 5 -9 13 -82 12 -121 0 -11 5 -45 11 -75 7 -30 13 -64 14 -75
1 -11 3 -20 4 -20 3 0 9 -29 15 -65 4 -30 24 -79 26 -65 3 20 8 41 21 85 18
65 17 63 23 91 3 14 12 44 20 67 8 22 12 43 9 46 -4 3 -1 6 6 6 7 0 9 4 6 10
-3 5 1 23 10 40 8 16 13 30 9 30 -4 0 -1 7 6 15 7 8 10 15 6 15 -4 0 0 13 9
30 8 16 16 33 16 37 3 21 41 125 50 138 3 6 10 25 14 43 3 17 11 32 16 32 5 0
9 7 9 16 0 9 7 28 15 42 23 43 75 160 75 171 0 5 4 11 8 13 10 4 66 120 64
131 -1 4 2 7 7 7 5 0 13 10 17 23 3 12 26 52 50 89 23 36 40 69 37 72 -4 3 -2
6 4 6 6 0 18 16 27 35 9 19 21 35 26 35 6 0 10 7 10 15 0 8 5 15 12 15 6 0 9
3 5 6 -5 5 10 27 41 59 6 8 12 17 12 22 0 4 11 22 25 38 13 17 28 35 32 40 37
48 102 125 123 144 14 14 25 28 25 32 0 3 42 47 92 97 51 49 93 88 93 86 0 -2
19 15 43 37 23 23 71 62 107 88 36 25 71 51 78 58 6 6 21 15 32 18 11 3 20 10
20 15 0 4 8 10 18 14 9 3 36 17 59 31 26 15 44 21 48 15 5 -9 -48 -92 -93
-145 -4 -5 -32 -48 -62 -95 -30 -47 -69 -106 -87 -132 -18 -26 -33 -52 -33
-58 0 -5 -4 -10 -10 -10 -5 0 -9 -3 -8 -7 1 -5 -5 -19 -13 -33 -35 -55 -76
-127 -94 -167 -11 -24 -23 -43 -27 -43 -5 0 -8 -9 -8 -19 0 -11 -4 -22 -9 -25
-11 -7 -121 -227 -121 -243 0 -6 -5 -13 -10 -15 -6 -2 -12 -12 -14 -23 -2 -11
-14 -39 -25 -61 -12 -23 -24 -51 -26 -64 -2 -12 -8 -27 -13 -34 -12 -15 -47
-109 -44 -118 1 -5 -3 -8 -8 -8 -5 0 -9 -3 -8 -7 0 -5 -2 -15 -5 -23 -10 -24
-51 -134 -54 -145 -4 -15 -44 -138 -50 -155 -7 -16 -11 -33 -16 -52 -1 -7 -6
-19 -11 -26 -4 -7 -5 -16 -2 -19 3 -3 2 -11 -3 -17 -9 -12 -46 -154 -44 -173
0 -7 1 -17 2 -22 1 -9 107 -87 196 -143 28 -18 53 -36 56 -41 3 -4 12 -9 20
-11 8 -1 39 -16 69 -34 30 -18 65 -35 78 -38 12 -3 22 -10 22 -15 0 -5 4 -8 8
-6 4 1 24 -6 43 -15 18 -9 61 -29 94 -43 33 -14 68 -30 77 -35 10 -6 23 -10
28 -10 6 0 30 -9 52 -20 23 -11 47 -20 54 -20 6 0 29 -8 50 -17 22 -9 42 -16
46 -15 3 1 33 -8 65 -19 84 -29 335 -91 443 -109 30 -6 70 -14 87 -19 38 -11
45 -4 39 36 -7 44 -19 136 -21 163 -15 168 -19 259 -19 450 1 183 7 365 13
365 1 0 3 29 5 65 3 36 7 84 10 108 3 23 8 61 12 85 13 106 29 196 50 287 7
30 24 117 29 145 2 11 4 21 5 23 2 1 4 7 5 12 1 6 3 11 4 13 2 1 5 13 7 27 3
14 10 43 16 65 6 22 12 47 13 55 3 32 112 377 126 404 6 10 12 28 15 39 2 11
7 23 11 26 5 3 9 13 11 21 5 25 95 242 119 289 13 24 23 50 23 57 0 7 5 14 10
16 6 2 12 13 13 26 0 12 4 22 7 22 4 0 17 22 30 50 13 27 27 50 31 50 6 0 20
37 18 49 0 2 3 7 8 10 5 3 22 32 38 63 17 32 33 58 38 58 4 0 7 7 7 15 0 8 4
15 10 15 5 0 9 3 8 8 -2 10 35 72 45 72 4 0 7 4 7 9 0 14 52 91 62 91 4 0 8 7
8 15 0 8 5 15 10 15 6 0 10 6 10 13 0 6 15 29 33 49 17 21 40 48 49 60 66 86
82 106 106 128 15 14 42 42 60 63 17 21 32 35 32 32 0 -4 12 8 28 27 15 18 40
44 57 58 16 14 37 33 47 43 10 9 22 17 27 17 5 0 11 4 13 9 4 11 137 111 147
111 5 0 12 7 15 16 3 8 10 12 16 9 5 -3 10 -1 10 4 0 6 4 11 9 11 4 0 40 19
80 41 l71 41 -24 29 c-23 26 -59 116 -55 135 6 33 -2 42 -33 38 -18 -1 -33 -3
-33 -4 0 -1 -10 -3 -22 -6 -13 -2 -33 -6 -45 -8 -13 -3 -24 -5 -25 -7 -3 -2
-3 -2 -53 -13 -19 -5 -39 -11 -45 -14 -5 -4 -19 -7 -30 -8 -11 -1 -33 -7 -50
-14 -16 -7 -34 -14 -40 -15 -9 -3 -83 -31 -130 -50 -11 -4 -23 -7 -27 -7 -5 1
-8 -2 -8 -6 0 -4 -10 -9 -22 -9 -13 -1 -24 -7 -26 -13 -2 -5 -9 -10 -16 -10
-20 0 -256 -121 -256 -131 0 -5 -9 -9 -20 -9 -11 0 -20 -4 -20 -9 0 -5 -9 -13
-20 -16 -11 -4 -33 -18 -50 -31 -16 -14 -30 -24 -32 -22 -7 6 -188 -128 -313
-232 -89 -74 -355 -353 -404 -424 -8 -12 -24 -29 -34 -38 -11 -10 -16 -18 -11
-18 5 0 -2 -7 -14 -16 -12 -8 -22 -21 -22 -29 0 -8 -6 -18 -12 -22 -15 -9 -36
-41 -44 -65 -4 -10 -10 -18 -14 -18 -5 0 -12 -9 -15 -20 -3 -11 -11 -20 -16
-20 -6 0 -6 7 1 19 5 11 10 31 10 45 0 14 4 26 8 26 5 0 9 6 9 13 1 24 24 96
33 102 5 3 7 12 3 20 -3 8 0 15 6 15 6 0 11 7 11 17 0 16 107 243 119 253 3 3
15 23 26 45 11 22 23 42 28 43 4 2 7 10 7 18 0 8 4 14 9 14 5 0 14 14 21 30 7
17 16 30 21 30 5 0 9 7 9 15 0 8 5 15 11 15 5 0 7 5 4 10 -3 6 1 13 9 16 9 3
16 10 16 16 0 9 41 67 70 99 8 9 24 28 34 43 11 15 28 37 38 49 11 12 27 31
36 42 10 11 17 22 17 25 0 3 45 51 100 108 55 56 105 108 111 115 19 21 117
110 168 152 27 22 58 49 71 60 52 47 76 65 85 65 6 0 10 4 10 9 0 11 300 211
370 247 30 15 58 33 63 38 6 10 -12 30 -72 79 -35 28 -114 83 -131 91 -8 3
-28 15 -45 26 -56 35 -236 129 -252 131 -5 0 -15 7 -23 14 -8 7 -34 19 -57 27
-24 7 -43 16 -43 19 0 4 -12 10 -27 14 -16 3 -41 13 -58 20 -28 13 -190 70
-225 80 -8 2 -55 16 -105 30 -49 14 -100 27 -112 30 -106 23 -178 43 -158 45
11 1 31 3 45 5 151 18 721 25 910 12 132 -10 292 -25 330 -32 14 -3 49 -7 79
-10 29 -3 58 -8 64 -12 5 -3 24 -7 41 -9 17 -1 45 -5 61 -8 17 -4 46 -9 65
-12 19 -3 61 -12 93 -19 31 -7 60 -14 62 -14 3 -1 6 -1 8 -2 3 -1 30 -6 62
-12 17 -4 48 -11 70 -17 22 -6 51 -13 64 -16 13 -3 31 -9 40 -13 9 -5 30 -11
46 -12 17 -2 32 -7 35 -11 3 -4 17 -9 30 -11 14 -3 52 -15 85 -27 33 -12 71
-24 85 -27 14 -3 32 -11 40 -19 8 -7 20 -13 25 -14 14 -3 42 -14 100 -41 28
-12 52 -23 55 -23 15 -2 185 -91 188 -98 2 -4 9 -8 17 -8 7 0 17 -6 23 -13 9
-10 -1 -13 -46 -13 -54 -1 -154 -10 -159 -14 -2 -2 -7 -4 -13 -5 -5 -1 -11 -3
-12 -4 -2 -2 -14 -4 -28 -7 -32 -5 -159 -42 -185 -54 -90 -39 -135 -62 -168
-84 -21 -14 -40 -26 -43 -26 -17 0 -130 -117 -168 -175 -30 -45 -73 -142 -69
-155 1 -3 -2 -9 -6 -15 -10 -13 -7 -94 4 -120 18 -42 87 -92 139 -100 106 -17
168 -24 291 -30 114 -5 197 -12 255 -20 25 -4 59 -9 75 -10 39 -5 168 -39 221
-58 70 -26 193 -94 194 -108 0 -8 -85 -3 -99 5 -6 4 -11 2 -11 -4 0 -8 -6 -8
-20 0 -13 7 -20 7 -20 1 0 -7 -9 -7 -25 -1 -14 5 -25 6 -25 2 0 -4 -24 -8 -53
-10 -47 -2 -92 -8 -92 -12 0 -1 -9 -3 -20 -5 -11 -2 -31 -6 -45 -8 -47 -8 -85
-20 -130 -40 -25 -11 -47 -21 -50 -22 -21 -6 -68 -33 -84 -47 -11 -10 -26 -18
-33 -18 -8 0 -16 -7 -19 -15 -4 -8 -11 -15 -16 -15 -14 0 -158 -152 -152 -161
2 -4 -6 -15 -18 -23 -12 -9 -19 -16 -14 -16 5 0 2 -8 -6 -17 -17 -20 -63 -115
-84 -176 -42 -120 -35 -254 23 -426 16 -47 92 -212 102 -221 3 -3 15 -23 27
-45 27 -52 48 -89 54 -95 3 -3 18 -25 34 -49 32 -49 40 -61 73 -95 12 -13 19
-27 16 -30 -3 -3 2 -8 11 -12 9 -3 16 -11 16 -16 0 -8 38 -59 95 -125 44 -52
127 -144 163 -181 23 -25 42 -46 42 -47 0 -5 278 -275 284 -276 3 0 26 -20 52
-45 26 -24 52 -44 57 -44 4 0 5 -4 2 -10 -3 -5 -1 -10 5 -10 6 0 27 -15 46
-33 20 -17 45 -37 57 -44 12 -7 18 -12 13 -13 -5 0 9 -12 30 -26 21 -15 41
-30 42 -35 2 -5 8 -9 13 -9 6 0 24 -14 42 -30 18 -17 40 -33 50 -36 9 -3 17
-9 17 -13 0 -4 24 -23 53 -41 28 -19 54 -36 57 -40 10 -11 256 -168 314 -200
146 -80 345 -170 386 -174 9 -1 20 -5 25 -8 6 -3 33 -9 60 -13 l50 -8 -40 40
c-61 60 -170 183 -230 259 -16 21 -38 47 -47 58 -10 12 -27 32 -39 46 -11 14
-33 39 -47 55 -15 17 -49 60 -77 95 -27 36 -54 70 -60 76 -5 7 -21 26 -35 44
-14 18 -34 43 -45 55 -40 46 -55 65 -55 70 0 2 -18 23 -40 47 -22 24 -40 47
-40 51 0 4 -13 20 -29 36 -16 15 -32 38 -36 50 -3 11 -10 21 -15 21 -4 0 -27
24 -49 53 -22 28 -47 59 -54 67 -7 8 -31 37 -53 65 -21 27 -43 55 -49 62 -68
78 -116 132 -142 162 -18 19 -33 39 -33 44 0 4 -4 6 -9 3 -5 -3 -11 0 -14 7
-3 9 -26 14 -68 14 -52 1 -193 25 -281 48 -10 3 -26 7 -35 9 -10 3 -38 12 -63
21 -25 9 -52 18 -62 20 -9 2 -30 11 -47 19 -17 9 -31 13 -31 9 0 -5 -4 -3 -8
2 -4 6 -18 16 -32 23 -44 23 -70 47 -74 69 -4 17 2 24 27 33 18 7 48 14 67 16
19 2 49 5 67 7 18 2 34 2 37 0 2 -2 33 -6 68 -8 34 -2 74 -7 88 -10 14 -3 41
-8 60 -11 19 -3 64 -13 100 -21 36 -8 76 -17 90 -20 14 -2 29 -8 34 -14 6 -5
19 -9 30 -9 12 0 41 -7 66 -16 25 -9 54 -18 65 -20 11 -2 29 -8 40 -13 11 -5
43 -17 70 -26 28 -10 83 -33 123 -51 41 -19 78 -34 83 -34 5 0 9 -4 9 -10 0
-5 7 -10 15 -10 8 0 15 -4 15 -8 0 -5 16 -17 35 -28 19 -10 35 -22 35 -26 0
-10 38 -48 48 -48 4 1 21 17 37 37 35 41 102 109 137 138 47 39 62 75 60 145
-2 57 -32 166 -50 180 -4 3 -12 14 -18 25 -8 15 -23 21 -60 23 -67 4 -77 8
-66 29 6 10 6 26 1 41 -5 14 -5 21 0 17 8 -4 7 63 -1 133 -3 22 -17 13 -34
-23 -9 -20 -26 -42 -38 -50 -11 -8 -17 -15 -13 -15 5 0 -12 -20 -38 -45 -36
-34 -53 -44 -76 -42 -16 1 -29 5 -29 10 0 4 -11 7 -23 7 -13 0 -27 3 -31 7 -4
5 -11 8 -14 8 -32 2 -176 60 -198 80 -7 6 -29 24 -50 40 -20 17 -50 42 -66 58
-16 15 -31 27 -34 27 -9 0 -33 27 -29 32 3 3 -5 10 -18 17 -19 10 -60 68 -63
90 -5 36 -35 46 -84 28 -8 -3 -35 -12 -60 -20 -25 -8 -61 -22 -81 -31 -36 -15
-36 -15 -70 17 -41 39 -69 86 -74 128 -5 38 22 109 41 109 8 0 14 6 14 14 0 8
9 18 20 21 11 4 18 10 16 14 -7 11 84 49 152 65 31 7 91 13 132 14 81 2 75 5
110 -64 8 -16 18 -33 23 -39 4 -5 22 -32 40 -60 47 -74 47 -74 83 -59 41 17
89 27 136 28 21 1 38 3 38 6 0 3 24 5 53 4 28 -1 52 -2 52 -3 0 -1 36 -4 79
-6 43 -2 91 -6 105 -9 62 -13 97 -19 119 -19 12 -1 22 -5 22 -9 0 -4 7 -8 15
-8 19 0 162 -67 170 -80 8 -12 -15 -100 -26 -100 -5 0 -8 -4 -6 -8 3 -11 -105
-172 -115 -172 -4 0 -8 -5 -8 -10 0 -11 50 -5 59 7 3 4 13 9 21 11 20 4 136
74 233 140 42 29 77 49 77 45 0 -5 5 -1 10 7 7 10 6 18 -3 25 -24 21 -39 57
-28 68 8 8 11 7 11 -3 0 -7 3 -10 7 -7 3 4 30 -6 59 -23 33 -18 61 -27 76 -24
12 3 33 7 46 10 13 2 52 15 87 29 35 13 66 21 69 18 3 -4 6 -1 6 5 0 6 15 14
32 18 18 3 66 22 108 42 41 19 77 36 80 36 48 11 294 166 338 213 21 23 31 65
15 61 -10 -2 -64 13 -78 21 -5 3 -17 7 -26 8 -9 1 -37 12 -63 23 -26 11 -54
20 -62 20 -9 0 -13 4 -10 9 3 5 -9 12 -27 16 -17 4 -37 9 -42 10 -6 1 -43 19
-83 38 -40 20 -74 37 -77 37 -2 1 -14 4 -25 7 -11 3 -20 9 -20 14 0 5 -3 8 -7
7 -9 -2 -105 43 -113 52 -7 9 -43 24 -52 22 -5 -1 -8 2 -8 7 0 5 -25 21 -55
36 -30 16 -55 32 -55 35 0 4 -8 10 -17 13 -22 7 -72 37 -91 55 -7 6 -23 17
-35 23 -24 13 -39 25 -73 56 -13 12 -24 20 -24 18 0 -2 -34 29 -75 70 -41 40
-75 78 -75 83 0 5 -6 12 -13 15 -7 2 -25 27 -39 54 -24 43 -26 52 -14 74 7 13
12 26 12 29 1 6 33 108 41 130 3 8 6 31 5 49 -1 38 -25 64 -144 159 -32 24
-58 49 -58 53 0 5 -5 9 -10 9 -6 0 -43 24 -83 53 -117 87 -236 167 -248 167
-5 0 -7 5 -4 10 3 6 1 10 -5 10 -6 0 -44 23 -85 50 -41 28 -77 50 -80 50 -3 0
-33 18 -65 40 -32 22 -64 40 -69 40 -6 0 -11 5 -11 10 0 6 -7 10 -15 10 -8 0
-15 5 -15 10 0 6 -7 10 -15 10 -8 0 -15 5 -15 12 0 6 -3 8 -6 5 -4 -4 -19 2
-34 13 -15 11 -30 17 -34 13 -3 -3 -6 -2 -6 4 0 5 -19 20 -42 32 -24 12 -62
33 -85 46 -24 13 -43 21 -43 18 0 -3 -7 0 -15 7 -9 7 -56 32 -105 56 l-89 43
15 63 c8 35 17 70 20 78 8 21 17 62 18 83 0 9 5 17 10 17 5 0 7 3 3 6 -3 3 1
23 8 45 13 35 6 54 -10 29 -4 -6 -11 -8 -16 -5 -5 4 -9 1 -9 -6 0 -7 -3 -9 -6
-6 -4 4 -19 -2 -34 -13 -16 -11 -31 -20 -35 -20 -3 0 -36 -18 -72 -40 -37 -22
-69 -40 -73 -40 -3 0 -16 18 -30 40 -13 22 -30 42 -37 44 -7 3 -13 12 -13 21
0 8 -4 15 -8 15 -5 0 -26 26 -48 58 -21 31 -41 59 -44 62 -15 14 -44 66 -41
75 1 6 -1 7 -4 3 -7 -7 -45 33 -45 47 0 3 -6 12 -12 19 -16 15 -40 48 -112
146 -30 41 -64 87 -75 102 -12 14 -21 31 -21 36 0 5 -6 12 -14 15 -10 4 -17
-4 -23 -26z m1151 -1871 c65 -15 226 -105 226 -127 0 -5 5 -9 12 -9 12 0 105
-94 158 -160 14 -17 31 -37 38 -45 19 -22 14 -27 -20 -20 -18 3 -48 8 -66 10
-18 2 -41 6 -50 9 -9 3 -37 8 -62 11 -51 7 -85 13 -85 15 0 2 -33 9 -65 14
-14 2 -38 7 -55 10 -86 20 -121 28 -135 33 -8 4 -24 8 -35 10 -11 2 -27 6 -35
10 -8 3 -18 7 -22 8 -5 2 -10 4 -13 5 -8 4 -17 7 -52 15 -18 4 -33 11 -33 16
0 5 -5 9 -10 9 -11 0 -36 22 -58 51 -10 14 -7 22 18 49 16 18 30 29 30 25 0
-5 8 -1 18 7 23 20 81 46 116 52 16 3 30 7 32 9 5 5 116 0 148 -7z"/>
<path d="M4460 4632 c0 -6 -18 -18 -40 -28 -22 -10 -40 -21 -40 -26 0 -4 -5
-8 -12 -8 -6 0 -26 -11 -43 -25 -18 -13 -35 -21 -39 -18 -3 4 -6 2 -6 -4 0 -6
-19 -23 -42 -39 -24 -15 -50 -35 -59 -44 -9 -8 -40 -35 -70 -60 -63 -54 -203
-198 -246 -255 -5 -6 -24 -30 -43 -55 -20 -25 -53 -72 -75 -105 -21 -33 -41
-62 -45 -65 -12 -9 -184 -330 -181 -337 0 -2 -11 -29 -25 -60 -27 -61 -103
-257 -109 -283 -2 -8 -19 -70 -39 -138 -20 -67 -38 -133 -40 -145 -3 -12 -8
-33 -11 -47 -3 -14 -14 -69 -25 -123 -11 -54 -22 -102 -25 -108 -4 -5 -8 -24
-10 -42 -2 -18 -6 -45 -9 -62 -11 -63 -19 -122 -22 -165 -1 -25 -4 -45 -4 -45
-2 0 -7 -34 -14 -115 -4 -41 -10 -95 -12 -120 -16 -159 -26 -754 -13 -802 4
-15 3 -30 -2 -34 -5 -3 -7 -9 -4 -14 3 -5 8 -44 10 -87 11 -199 24 -339 42
-463 2 -19 5 -43 5 -52 -1 -24 19 -37 62 -40 20 -1 40 -6 42 -10 3 -5 9 -6 13
-3 5 2 23 0 42 -6 19 -5 49 -12 68 -15 18 -3 43 -8 55 -10 11 -2 41 -7 66 -10
25 -3 52 -8 60 -11 8 -3 29 -7 45 -9 17 -2 50 -6 75 -9 264 -33 386 -40 685
-39 227 0 430 7 430 14 0 1 27 3 60 5 97 7 120 12 120 22 0 9 -27 51 -50 77
-6 6 -44 58 -85 116 -41 58 -78 106 -82 108 -5 2 -8 10 -8 18 0 8 -4 14 -10
14 -5 0 -10 7 -10 15 0 8 -4 15 -10 15 -5 0 -10 7 -10 15 0 8 -3 15 -8 15 -4
0 -18 20 -32 45 -14 25 -28 45 -32 45 -5 0 -8 4 -8 9 0 9 -97 161 -120 189 -6
6 -8 12 -5 12 4 0 -3 12 -14 26 -12 15 -21 33 -21 40 0 8 -4 14 -10 14 -5 0
-10 6 -10 13 0 8 -9 24 -20 37 -11 13 -23 34 -26 47 -4 13 -11 23 -17 23 -6 0
-8 3 -4 6 3 4 -1 13 -9 21 -8 8 -12 19 -9 24 4 5 2 9 -3 9 -5 0 -20 21 -33 48
-13 26 -27 49 -30 52 -5 5 -122 239 -124 250 -1 3 -14 32 -30 65 -16 33 -29
62 -30 65 0 3 -8 19 -18 36 -9 18 -23 49 -30 70 -8 22 -33 88 -56 147 -23 59
-43 116 -45 125 -1 9 -6 24 -9 32 -18 42 -35 100 -30 100 3 0 0 7 -7 15 -7 8
-9 15 -5 15 4 0 3 6 -2 13 -6 6 -9 20 -8 30 2 9 0 17 -5 17 -4 0 -13 28 -20
63 -7 34 -17 68 -23 75 -5 6 -7 12 -4 12 3 0 1 17 -4 38 -11 46 -29 153 -35
207 -3 22 -8 51 -11 65 -8 37 -13 470 -5 470 4 0 8 21 10 48 1 26 4 58 6 72 3
14 8 41 11 60 3 19 9 42 12 50 3 8 8 24 9 35 7 40 38 131 52 153 8 12 12 22 9
22 -3 0 5 24 18 54 13 30 21 57 18 60 -4 3 -1 6 5 6 5 0 21 23 33 50 12 28 26
50 31 50 4 0 8 7 8 15 0 8 5 15 11 15 5 0 8 4 5 9 -6 10 62 108 107 153 9 10
17 21 17 24 0 13 123 138 210 214 24 21 41 42 37 46 -4 4 -7 2 -7 -4z"/>
<path d="M4379 4288 c-13 -17 -29 -36 -35 -42 -14 -15 -61 -88 -63 -101 -1 -5
-9 -14 -17 -18 -8 -5 -12 -12 -9 -18 4 -5 2 -9 -4 -9 -5 0 -12 -13 -16 -30 -4
-16 -10 -30 -15 -30 -7 0 -11 -10 -25 -55 -2 -5 -15 -41 -30 -80 -15 -38 -26
-71 -25 -73 1 -1 -1 -15 -4 -30 -4 -15 -9 -38 -11 -52 -30 -145 -25 -452 10
-606 3 -12 7 -39 11 -60 3 -21 11 -60 19 -86 7 -25 11 -49 8 -52 -4 -3 -2 -6
3 -6 5 0 11 -12 12 -27 1 -15 8 -30 14 -34 7 -5 9 -11 6 -14 -6 -7 77 -261
107 -330 8 -16 28 -64 45 -105 45 -106 123 -264 135 -272 6 -4 7 -8 3 -8 -4 0
3 -19 16 -42 13 -24 39 -72 58 -108 20 -36 45 -81 57 -100 11 -19 30 -54 42
-77 12 -24 25 -43 29 -43 4 0 10 -8 14 -17 6 -20 26 -53 79 -136 20 -31 37
-62 37 -67 0 -6 5 -10 10 -10 6 0 10 -7 10 -15 0 -8 5 -15 10 -15 6 0 10 -6
10 -14 0 -8 4 -16 8 -18 8 -3 57 -70 57 -78 0 -3 12 -21 28 -41 15 -20 27 -40
27 -44 0 -5 7 -15 15 -24 26 -27 145 -192 145 -201 0 -4 4 -10 8 -12 5 -1 37
-41 73 -88 35 -47 67 -86 71 -88 5 -2 8 -8 8 -14 0 -6 8 -18 18 -27 9 -9 44
-50 77 -91 131 -163 117 -152 164 -135 22 7 42 11 45 8 3 -4 6 -2 6 4 0 5 6
10 13 10 6 0 36 10 65 22 28 11 52 17 52 13 0 -4 4 -2 8 4 4 5 32 20 62 33 89
37 219 102 307 153 46 27 85 47 88 46 2 -2 12 7 20 20 9 12 21 22 27 22 9 0
177 116 188 130 3 4 24 20 47 37 23 17 39 33 36 37 -3 3 -1 6 6 6 6 0 27 16
47 35 19 19 37 35 40 35 3 0 16 12 29 26 23 25 24 28 7 40 -9 7 -23 14 -30 14
-15 0 -54 21 -64 35 -4 6 -8 6 -8 1 0 -5 -8 -2 -19 8 -10 9 -29 19 -42 21 -12
3 -27 12 -32 20 -4 8 -12 13 -16 10 -5 -2 -14 2 -21 10 -7 8 -16 15 -21 15 -5
0 -33 16 -64 35 -30 20 -63 39 -73 42 -16 7 -74 43 -97 61 -5 4 -31 21 -57 37
-27 17 -48 33 -48 38 0 4 -5 7 -10 7 -12 0 -73 41 -78 53 -2 4 -10 7 -17 7 -7
0 -15 4 -17 8 -1 4 -41 34 -88 67 -47 33 -90 64 -96 70 -34 31 -65 55 -72 55
-4 0 -15 8 -24 18 -9 9 -29 26 -43 37 -15 11 -32 25 -38 30 -7 6 -28 22 -47
36 -19 14 -49 39 -66 55 -29 27 -52 47 -147 127 -60 50 -356 347 -417 417 -30
35 -63 73 -73 84 -40 47 -53 62 -68 86 -10 14 -26 35 -38 47 -12 12 -21 26
-21 32 0 5 -3 11 -7 13 -13 5 -73 86 -73 97 0 6 -4 11 -10 11 -5 0 -10 7 -10
15 0 8 -4 15 -9 15 -5 0 -13 9 -16 21 -4 12 -18 37 -32 58 -26 38 -125 228
-129 247 -1 6 -9 27 -18 45 -23 50 -46 119 -39 119 3 0 0 6 -6 14 -7 8 -13 30
-14 49 -1 19 -5 33 -9 30 -5 -2 -8 6 -9 19 -1 32 -6 68 -13 98 -6 25 -8 193
-2 240 4 37 21 125 26 135 1 3 4 10 5 15 1 6 4 12 5 15 1 3 4 10 5 15 1 6 4
12 5 15 1 3 3 8 4 13 7 29 32 82 39 82 4 0 6 4 3 9 -4 5 0 12 6 14 8 3 8 6 2
6 -6 1 -22 -13 -35 -31z"/>
</g>
</svg>
