<?xml version="1.0" standalone="no"?>
<!DOCTYPE svg PUBLIC "-//W3C//DTD SVG 20010904//EN"
 "http://www.w3.org/TR/2001/REC-SVG-20010904/DTD/svg10.dtd">
<svg version="1.0" xmlns="http://www.w3.org/2000/svg"
 width="800.000000pt" height="800.000000pt" viewBox="0 0 800.000000 800.000000"
 preserveAspectRatio="xMidYMid meet">
<metadata>
Created by potrace 1.11, written by Peter Selinger 2001-2013
</metadata>
<g transform="translate(0.000000,800.000000) scale(0.100000,-0.100000)"
fill="#000000" stroke="none">
<path d="M3748 7995 c-2 -2 -32 -5 -66 -7 -54 -2 -62 -5 -63 -23 0 -11 -2
-1118 -3 -2460 -2 -1823 -5 -2445 -14 -2461 -6 -12 -9 -24 -5 -27 3 -3 2 -14
-2 -24 -4 -10 -9 -31 -10 -48 -1 -16 -3 -38 -4 -49 -1 -12 -6 -16 -17 -12 -14
5 -15 4 -5 -8 9 -11 10 -24 1 -58 -7 -24 -15 -47 -18 -53 -4 -5 -8 -19 -9 -30
-2 -10 -8 -22 -14 -26 -6 -3 -10 -9 -10 -13 2 -13 -11 -56 -18 -56 -4 0 -7
-10 -8 -21 -1 -12 -8 -29 -15 -38 -12 -15 -24 -34 -52 -86 -6 -11 -13 -22 -16
-25 -3 -3 -10 -14 -17 -25 -6 -11 -16 -19 -23 -17 -6 1 -9 -2 -5 -8 8 -13 -14
-42 -25 -35 -4 3 -7 -3 -6 -13 0 -9 -5 -16 -12 -14 -8 1 -11 -2 -8 -7 10 -15
-130 -155 -145 -146 -7 5 -10 4 -6 -2 7 -11 -70 -80 -85 -76 -4 2 -8 -1 -8 -6
0 -11 -149 -104 -167 -104 -7 0 -13 -3 -13 -7 0 -6 -72 -35 -79 -31 -2 2 -7
-1 -10 -6 -6 -9 -82 -42 -111 -48 -8 -2 -37 -11 -65 -20 -27 -10 -66 -18 -86
-19 -20 0 -35 -4 -33 -7 2 -3 -21 -10 -51 -16 -39 -7 -55 -6 -55 1 0 8 -3 8
-8 1 -4 -6 -27 -12 -51 -14 -24 -1 -52 -4 -63 -6 -10 -2 -18 2 -18 8 0 8 -3 9
-8 1 -10 -15 -204 -16 -214 -1 -5 7 -8 8 -8 1 0 -5 -14 -9 -32 -7 -18 2 -58 5
-88 8 -30 3 -68 7 -85 9 -16 2 -36 4 -43 5 -8 1 -10 6 -6 13 6 9 3 9 -9 0 -9
-8 -22 -10 -29 -6 -7 5 -20 9 -28 11 -57 7 -130 27 -130 34 0 5 -3 8 -7 7 -17
-5 -83 14 -78 22 3 4 -4 6 -15 3 -12 -3 -20 0 -20 6 0 7 -5 9 -10 6 -6 -3 -10
-2 -10 4 0 6 -7 7 -17 4 -12 -5 -14 -3 -8 7 5 8 4 11 -3 7 -15 -10 -43 3 -35
16 3 5 1 7 -5 4 -15 -10 -43 3 -35 16 3 5 1 7 -4 4 -13 -8 -73 20 -73 34 0 5
-3 8 -7 8 -19 -3 -34 2 -29 9 3 5 0 9 -7 9 -19 0 -127 85 -121 95 3 4 1 7 -4
6 -5 -2 -38 27 -73 63 -70 71 -102 109 -94 109 3 0 1 6 -5 12 -42 51 -50 63
-45 75 2 8 1 12 -4 9 -5 -4 -26 29 -46 71 -21 43 -40 82 -43 87 -3 5 1 6 8 1
7 -4 2 7 -11 24 -20 27 -21 33 -9 41 13 8 13 10 -2 10 -12 0 -15 8 -14 29 1
17 -2 28 -6 25 -4 -3 -8 4 -8 16 0 13 4 19 12 14 7 -4 8 -3 4 5 -4 6 -11 9
-16 6 -4 -3 -11 3 -14 12 -4 9 -2 20 5 23 7 5 8 9 1 11 -6 2 -12 16 -14 31 -2
15 -7 30 -11 34 -4 4 -2 13 4 21 7 8 8 13 1 13 -5 0 -12 12 -15 26 -3 18 -1
24 8 20 14 -5 14 19 0 31 -4 4 -5 2 -1 -4 4 -7 3 -13 -2 -13 -11 0 -10 70 1
88 5 7 5 12 0 11 -19 -3 -22 2 -13 25 4 13 5 27 0 32 -4 5 -4 18 0 29 5 11 9
14 9 8 1 -7 6 -13 12 -13 5 0 8 4 5 8 -2 4 21 7 52 7 43 -1 56 -5 54 -15 -3
-11 2 -10 16 3 22 20 37 23 26 5 -6 -10 -4 -10 7 -2 18 14 50 14 42 0 -4 -6 1
-5 10 3 14 11 17 11 17 0 0 -9 3 -10 8 -4 9 13 72 14 72 1 0 -6 5 -5 12 2 8 8
15 8 24 1 9 -7 19 -7 33 0 26 14 34 14 25 -1 -5 -7 -3 -8 7 -2 19 11 139 12
139 0 0 -4 6 -4 13 3 10 7 17 7 24 0 8 -8 17 -8 31 0 27 14 35 14 26 -1 -5 -7
-3 -8 7 -2 19 11 139 12 139 0 0 -4 6 -4 13 3 10 7 17 7 24 0 8 -8 17 -8 31 0
27 14 35 14 26 -1 -5 -7 -3 -8 7 -2 15 9 108 13 110 4 1 -3 3 -33 4 -66 4 -72
11 -124 19 -132 3 -3 0 -12 -7 -20 -9 -13 -9 -14 1 -8 8 5 12 1 12 -11 0 -25
35 -119 56 -151 10 -15 17 -28 15 -30 -1 -2 7 -12 18 -21 11 -10 17 -22 13
-26 -4 -5 -2 -5 5 -1 6 3 16 -2 22 -11 5 -10 12 -17 15 -15 16 6 28 0 23 -12
-4 -9 0 -12 12 -9 9 2 30 -1 46 -8 32 -13 40 -15 68 -17 10 -1 15 -7 11 -13
-4 -8 0 -8 15 0 11 7 21 8 21 4 0 -4 29 -6 65 -5 42 3 71 -1 81 -9 12 -10 13
-9 9 3 -3 8 0 15 7 15 49 2 135 41 176 78 14 13 29 22 34 19 5 -3 7 0 6 8 -2
7 3 12 11 10 8 -2 11 3 8 13 -4 10 -1 15 10 15 9 0 13 3 10 6 -12 12 14 46 30
40 13 -5 14 -4 3 9 -7 8 -10 16 -6 16 3 1 10 2 15 3 5 0 13 5 18 9 4 5 3 7 -4
5 -6 -2 -11 2 -11 7 0 6 4 9 8 8 4 -1 6 7 3 18 -4 12 2 26 13 35 11 9 14 13 7
10 -7 -4 -9 1 -6 14 3 11 8 18 12 16 3 -2 7 10 8 27 1 18 4 50 7 72 2 22 6 72
7 110 1 48 6 76 17 88 12 13 13 18 3 15 -8 -2 -15 7 -17 21 -4 21 -3 22 13 10
16 -12 17 -12 6 2 -7 9 -9 20 -5 24 4 5 1 5 -6 1 -10 -6 -12 2 -10 31 2 21 8
41 13 45 6 5 6 8 -1 8 -17 0 -15 63 4 83 11 13 12 17 3 15 -8 -2 -15 7 -17 21
-4 21 -3 22 13 10 16 -12 17 -12 6 2 -7 9 -9 20 -5 24 4 5 1 5 -5 1 -9 -5 -13
-1 -13 11 0 11 6 25 13 32 6 8 7 11 1 8 -19 -11 -15 95 4 116 12 13 13 18 3
15 -8 -2 -15 7 -17 21 -4 21 -3 22 13 10 16 -12 17 -12 6 2 -7 9 -9 20 -5 24
4 5 1 5 -6 1 -10 -6 -12 2 -10 31 2 21 8 41 13 45 6 5 6 8 -1 8 -17 0 -15 63
4 83 11 13 12 17 3 15 -8 -2 -15 7 -17 21 -4 21 -3 22 13 10 16 -12 17 -12 6
2 -7 9 -9 20 -5 24 4 5 1 5 -5 1 -9 -5 -13 -1 -13 11 0 11 6 25 13 32 6 8 7
11 1 8 -19 -11 -15 95 4 116 12 13 13 18 3 15 -8 -2 -15 7 -17 21 -4 21 -3 22
13 10 16 -12 17 -12 6 2 -7 9 -9 20 -5 24 4 5 1 5 -6 1 -10 -6 -12 2 -10 31 2
21 8 41 13 45 6 5 6 8 -1 8 -17 0 -15 63 4 83 11 13 12 17 3 15 -8 -2 -15 7
-17 21 -4 21 -3 22 13 10 16 -12 17 -12 6 2 -7 9 -9 20 -5 24 4 5 1 5 -5 1 -9
-5 -13 -1 -13 11 0 11 6 25 13 32 6 8 7 11 1 8 -19 -11 -15 95 4 116 12 13 13
18 3 15 -8 -2 -15 7 -17 21 -4 21 -3 22 13 10 16 -12 17 -12 6 2 -7 9 -9 20
-5 24 4 5 1 5 -6 1 -10 -6 -12 2 -10 31 2 21 8 41 13 45 6 5 6 8 -1 8 -17 0
-15 63 4 83 11 13 12 17 3 15 -8 -2 -15 7 -17 21 -4 21 -3 22 13 10 16 -12 17
-12 6 2 -7 9 -9 20 -5 24 4 5 1 5 -5 1 -9 -5 -13 -1 -13 11 0 11 6 25 13 32 6
8 7 11 1 8 -19 -11 -15 95 4 116 12 13 13 18 3 15 -8 -2 -15 7 -17 21 -4 21
-3 22 13 10 16 -12 17 -12 6 2 -7 9 -9 20 -5 24 4 5 1 5 -6 1 -10 -6 -12 2
-10 31 2 21 8 41 13 45 6 5 6 8 -1 8 -15 0 -16 61 -1 79 9 12 9 13 -1 7 -15
-9 -13 55 3 66 6 5 6 8 -1 8 -17 0 -15 63 4 83 11 13 12 17 3 15 -8 -2 -15 7
-17 21 -4 21 -3 22 13 10 16 -12 17 -12 6 2 -7 9 -9 20 -5 24 4 5 1 5 -5 1
-17 -10 -17 26 0 43 6 8 7 11 1 8 -19 -11 -15 95 4 116 12 13 13 18 3 15 -8
-2 -15 7 -17 21 -4 21 -3 22 13 10 16 -12 17 -12 6 2 -7 9 -9 20 -5 24 4 5 1
5 -6 1 -10 -6 -12 2 -10 31 2 21 8 41 13 45 6 5 6 8 -1 8 -17 0 -14 63 4 84 9
11 12 16 5 13 -15 -9 -27 9 -16 26 11 18 13 38 2 31 -5 -3 -9 15 -9 40 0 30 4
46 13 46 8 0 7 4 -3 10 -13 9 -13 11 0 20 10 6 11 10 3 10 -20 0 -16 70 5 86
13 11 14 13 1 9 -12 -5 -16 2 -17 31 -1 21 4 44 11 53 9 12 9 13 0 7 -9 -5
-13 0 -13 18 0 13 6 27 13 29 10 4 10 6 0 6 -20 1 -16 71 5 87 15 12 15 13 0
8 -14 -5 -16 4 -16 63 0 39 5 71 12 75 8 6 7 8 -1 8 -20 0 -16 70 5 86 13 11
14 13 1 9 -12 -5 -16 2 -17 31 -1 21 4 44 11 53 9 12 9 13 0 7 -9 -5 -13 0
-13 18 0 13 6 27 13 29 10 4 10 6 0 6 -20 1 -16 71 5 87 15 12 15 13 0 8 -14
-5 -16 4 -16 63 0 39 5 71 12 75 8 6 7 8 -1 8 -20 0 -16 70 5 86 13 11 14 13
1 9 -12 -5 -16 2 -17 31 -1 21 4 44 11 53 9 12 9 13 0 7 -9 -5 -13 0 -13 18 0
13 6 27 13 29 10 4 10 6 0 6 -20 1 -16 71 5 87 15 12 15 13 0 8 -14 -5 -16 3
-16 53 -1 122 -2 133 -14 130 -7 -1 -15 -4 -18 -7 -14 -15 -90 -41 -101 -35
-8 6 -10 4 -4 -5 6 -10 4 -12 -9 -7 -9 4 -15 3 -12 -2 3 -5 -1 -12 -10 -15
-22 -9 -26 -8 -18 6 4 7 3 8 -5 4 -6 -4 -9 -11 -6 -16 5 -8 -51 -26 -68 -22
-5 2 -6 -2 -3 -7 3 -5 -6 -14 -22 -19 -15 -5 -36 -13 -46 -18 -15 -6 -17 -4
-11 6 5 9 4 11 -4 6 -6 -4 -9 -11 -7 -15 3 -4 -31 -25 -74 -46 -44 -22 -80
-43 -80 -47 0 -5 -8 -8 -19 -8 -10 0 -24 -7 -31 -15 -7 -8 -17 -15 -22 -15 -5
0 -22 -10 -37 -21 -17 -13 -34 -18 -42 -14 -7 5 -10 4 -5 -3 3 -6 -3 -13 -14
-17 -11 -3 -20 -11 -20 -17 0 -6 -3 -9 -6 -5 -4 3 -13 -1 -21 -9 -8 -8 -19
-11 -25 -8 -6 4 -8 2 -5 -3 10 -16 -18 -24 -32 -10 -9 9 -11 8 -6 -5 7 -19
-37 -54 -55 -43 -6 4 -9 1 -8 -5 2 -7 -6 -17 -16 -23 -25 -15 -34 -22 -71 -52
-29 -24 -40 -29 -58 -26 -5 1 -6 -3 -2 -8 6 -11 -34 -37 -50 -32 -5 1 -7 0 -3
-4 14 -14 -67 -76 -90 -68 -12 3 -13 2 -5 -4 9 -6 -3 -23 -44 -58 -32 -28 -63
-49 -70 -49 -7 1 -11 -1 -8 -5 6 -11 -271 -282 -280 -274 -4 5 -5 3 -1 -4 8
-14 -38 -66 -48 -55 -4 4 -6 2 -4 -4 1 -6 -12 -29 -29 -50 -18 -21 -55 -68
-84 -104 -28 -36 -55 -66 -60 -68 -5 -2 -9 -8 -9 -13 0 -10 -10 -24 -42 -60
-10 -10 -18 -22 -18 -25 0 -8 -52 -77 -69 -91 -8 -7 -11 -13 -7 -13 8 0 -32
-61 -49 -72 -5 -4 -7 -8 -2 -8 4 0 0 -11 -9 -25 -9 -14 -21 -22 -27 -18 -5 3
-7 1 -4 -5 9 -14 -3 -43 -14 -36 -5 3 -6 -3 -2 -12 5 -13 3 -15 -8 -9 -8 4
-11 5 -7 0 8 -9 -31 -85 -44 -85 -4 0 -7 -3 -7 -7 3 -21 -2 -33 -13 -27 -7 4
-8 3 -4 -4 10 -17 -12 -52 -32 -52 -10 0 -13 -3 -6 -8 11 -7 -79 -214 -96
-220 -5 -2 -6 -10 -3 -18 3 -9 -1 -14 -13 -14 -12 0 -15 -3 -7 -8 8 -5 4 -22
-15 -62 -14 -30 -27 -61 -28 -67 -4 -23 -29 -73 -35 -73 -4 0 -6 -6 -5 -12 2
-20 -38 -138 -47 -138 -5 0 -6 -4 -3 -8 4 -8 -24 -120 -41 -162 -9 -22 -10
-28 -12 -51 -1 -13 -5 -18 -13 -13 -7 4 -10 4 -6 -1 4 -4 2 -15 -5 -23 -10
-13 -9 -14 2 -7 11 6 13 4 8 -9 -4 -10 -14 -56 -24 -102 -9 -46 -19 -82 -22
-80 -3 2 -7 -12 -7 -32 -1 -33 -6 -68 -19 -142 -13 -69 -19 -121 -32 -260 -10
-111 -9 -591 1 -700 4 -47 9 -106 9 -132 1 -27 5 -48 9 -48 3 0 5 -8 3 -17 -1
-10 2 -26 7 -37 8 -14 7 -17 -4 -10 -10 6 -11 5 -1 -7 6 -8 13 -34 16 -59 3
-25 8 -58 12 -74 6 -22 5 -27 -5 -21 -6 4 -4 -5 6 -21 11 -15 18 -31 17 -34
-2 -3 0 -13 3 -24 4 -10 0 -22 -7 -27 -11 -7 -10 -9 5 -9 11 0 16 -5 13 -14
-3 -7 -1 -18 4 -23 5 -5 10 -25 11 -46 2 -20 6 -37 9 -37 7 0 10 -16 12 -64 1
-19 5 -32 10 -29 6 3 8 -5 7 -32 0 -3 7 -19 15 -35 9 -17 13 -30 11 -30 -3 0
2 -17 11 -38 8 -20 15 -37 13 -37 -1 0 4 -13 10 -30 7 -16 13 -42 14 -57 0
-14 4 -24 7 -22 9 5 20 -26 13 -37 -3 -5 -1 -9 4 -9 11 0 33 -70 25 -83 -3 -6
-1 -7 5 -3 6 3 14 -4 17 -16 7 -22 20 -53 65 -153 12 -25 18 -51 14 -57 -4 -6
-3 -8 3 -5 11 7 60 -89 55 -110 -2 -7 3 -12 10 -11 6 2 12 -1 13 -7 0 -5 11
-27 23 -47 13 -21 20 -43 16 -50 -4 -7 -4 -10 1 -6 9 9 40 -30 31 -39 -3 -4 3
-13 15 -21 11 -8 18 -20 15 -29 -3 -8 -2 -12 3 -9 10 6 35 -43 32 -63 -1 -7 2
-10 7 -7 5 3 15 -7 23 -22 8 -15 17 -29 20 -32 3 -3 23 -32 44 -65 22 -33 44
-63 50 -67 5 -4 7 -8 3 -8 -4 0 3 -11 15 -24 12 -13 27 -30 32 -38 6 -7 20
-26 33 -42 12 -15 19 -32 16 -37 -3 -5 1 -9 8 -9 15 -1 74 -77 70 -91 -1 -5 5
-9 13 -9 7 0 18 -6 22 -14 4 -8 25 -33 46 -56 33 -35 37 -43 26 -58 -11 -14
-11 -15 1 -5 11 11 25 1 78 -52 38 -39 60 -69 56 -76 -4 -8 -3 -9 5 -5 7 5 42
-22 91 -72 44 -44 80 -77 80 -74 0 3 8 -3 18 -14 10 -10 39 -36 65 -58 26 -21
44 -42 42 -46 -3 -4 3 -7 13 -6 10 0 16 -5 14 -14 -2 -8 0 -12 4 -8 12 12 66
-33 59 -50 -4 -11 -2 -12 7 -4 15 11 42 -10 30 -24 -4 -4 -2 -4 4 -1 12 7 84
-39 84 -53 0 -6 6 -9 12 -8 7 2 12 -3 10 -10 -1 -7 3 -12 10 -10 14 3 185
-106 206 -131 7 -9 15 -14 18 -12 3 2 28 -9 56 -24 32 -17 46 -30 38 -35 -8
-5 -7 -9 5 -13 10 -5 14 -3 9 4 -8 14 -7 14 88 -36 42 -21 74 -43 72 -47 -3
-4 1 -5 9 -3 7 3 29 -5 49 -19 20 -13 39 -22 41 -19 8 8 48 -17 42 -27 -3 -4
3 -6 14 -3 10 3 22 0 25 -6 4 -6 15 -11 25 -11 10 0 26 -10 35 -23 9 -12 14
-16 11 -9 -8 16 -8 16 58 -11 32 -13 54 -27 50 -31 -4 -4 0 -4 9 -1 16 6 54
-7 131 -45 20 -10 35 -14 32 -9 -9 13 9 11 23 -3 7 -7 18 -13 25 -14 7 0 22
-2 35 -2 15 -1 21 -6 16 -14 -4 -7 -3 -8 5 -4 16 10 53 -3 45 -16 -4 -7 -2 -8
5 -4 21 13 91 -4 92 -22 0 -11 2 -12 6 -4 2 6 9 12 14 12 6 0 8 -4 5 -8 -3 -5
3 -8 12 -8 46 0 73 -5 69 -11 -3 -5 11 -9 32 -10 33 -2 76 -9 76 -13 0 -4 83
-18 150 -26 28 -4 55 -13 62 -23 12 -14 12 -14 7 3 -6 16 -4 17 14 7 12 -7 22
-9 22 -6 0 3 9 1 20 -5 12 -6 20 -7 20 -1 0 5 11 6 28 2 15 -5 26 -14 24 -20
-1 -7 2 -10 8 -6 6 3 8 11 5 16 -3 5 2 6 11 2 9 -3 33 -6 53 -6 20 0 41 -3 46
-7 16 -11 790 -1 790 10 0 3 26 7 95 14 30 3 55 6 55 6 0 4 47 11 91 13 29 1
50 5 48 9 -3 4 6 7 18 7 51 1 58 3 58 13 0 6 9 3 20 -7 17 -15 20 -16 15 -3
-5 12 2 18 24 23 17 3 35 4 41 0 5 -3 10 -1 10 6 0 6 8 9 20 6 10 -3 20 -1 22
4 3 7 32 15 88 24 8 1 23 6 33 10 9 4 24 4 33 1 8 -3 12 -2 9 4 -5 8 16 17 56
23 8 2 19 6 26 10 6 4 19 4 29 0 11 -4 15 -3 11 4 -4 6 0 14 9 17 10 4 13 2 8
-7 -5 -8 -2 -8 9 2 9 7 24 11 32 7 9 -3 14 -2 11 3 -7 11 52 33 65 25 5 -3 9
-1 9 4 0 9 47 27 63 24 4 -1 7 2 7 7 0 5 15 13 33 16 17 4 35 12 38 17 4 6 18
11 33 11 14 1 26 5 26 8 0 11 81 40 92 33 6 -4 8 -3 5 3 -7 12 50 39 72 35 7
-2 11 1 8 5 -3 5 9 15 26 23 18 7 34 16 37 19 3 4 35 20 72 37 37 17 65 34 61
38 -3 3 1 6 10 6 8 0 23 7 32 16 8 9 22 13 30 10 8 -3 14 0 12 7 -1 7 4 11 11
9 6 -1 12 3 12 9 0 6 7 9 15 6 8 -4 17 -1 21 5 5 7 2 8 -7 4 -8 -4 -3 2 11 13
23 19 42 26 63 22 5 -1 6 3 3 8 -3 4 12 20 34 35 22 14 40 24 40 21 0 -3 9 3
19 13 38 34 49 41 55 35 3 -4 6 -1 6 6 0 13 70 58 83 53 5 -1 6 2 2 7 -7 13
41 45 54 36 7 -3 8 0 5 9 -4 12 0 16 17 17 13 0 18 3 12 6 -16 6 71 73 95 73
13 0 14 2 4 9 -10 6 -4 12 20 24 18 9 29 17 25 17 -4 0 11 18 35 39 30 29 45
36 51 28 6 -8 7 -7 4 5 -3 9 2 23 12 32 20 19 35 21 25 4 -4 -7 -3 -8 5 -4 6
4 9 11 6 15 -2 5 2 17 10 27 13 17 16 17 26 4 9 -13 10 -12 5 3 -7 21 18 52
34 42 6 -4 10 -3 9 2 -3 18 1 36 8 30 3 -4 11 3 18 16 6 12 17 21 24 19 7 -1
10 2 7 7 -4 5 5 18 19 29 13 11 21 23 17 27 -4 5 1 5 11 2 11 -4 16 -3 12 4
-8 12 14 41 26 33 5 -3 9 2 9 11 0 10 5 13 12 9 7 -5 8 -3 3 5 -7 13 33 58 47
53 5 -1 7 2 6 7 -2 5 8 23 21 41 18 25 25 29 33 19 7 -12 8 -11 6 1 -3 23 12
61 23 54 5 -3 6 -10 3 -16 -4 -7 -2 -8 4 -4 6 4 9 13 5 21 -6 17 15 48 27 40
4 -3 7 1 6 8 -2 20 98 157 111 152 7 -2 15 1 19 7 4 6 3 8 -4 4 -6 -3 -13 -2
-17 4 -3 5 -1 10 4 10 6 0 11 7 11 15 0 8 5 15 10 15 6 0 10 6 10 14 0 23 24
37 40 23 12 -10 12 -9 1 5 -11 15 -11 21 -1 33 15 18 151 16 -1653 17 -1138 1
-1247 2 -1245 17 2 9 10 22 18 29 13 11 13 11 -1 7 -20 -7 -20 44 1 71 14 18
14 18 -3 5 -17 -14 -18 -13 -15 5 1 10 10 22 18 26 13 6 13 7 -1 7 -20 1 -20
58 1 72 13 9 12 10 -3 5 -15 -5 -17 1 -14 44 2 27 9 55 16 63 9 12 9 17 0 23
-7 4 -9 3 -5 -4 3 -6 2 -13 -3 -16 -5 -4 -9 13 -9 38 1 36 4 43 17 39 13 -4
13 -3 -1 6 -19 12 -18 52 1 75 9 11 9 16 0 22 -7 4 -9 3 -5 -4 3 -6 2 -13 -3
-16 -5 -4 -9 13 -9 38 1 36 4 43 17 39 13 -4 13 -3 -1 6 -19 12 -18 52 1 75 9
11 9 16 0 22 -7 4 -9 3 -5 -4 3 -6 2 -13 -3 -16 -5 -4 -9 13 -9 38 1 36 4 43
17 39 13 -4 13 -3 -1 6 -19 12 -18 52 1 75 9 11 9 16 0 22 -7 4 -9 3 -5 -4 3
-6 2 -13 -3 -16 -5 -4 -9 13 -9 38 1 36 4 43 17 39 14 -4 14 -4 1 6 -10 7 -15
28 -16 66 0 46 2 55 15 50 14 -4 14 -4 1 7 -20 17 -19 66 0 79 13 9 12 10 -2
5 -15 -4 -17 2 -15 48 2 30 9 62 17 72 14 18 14 18 -3 5 -17 -14 -18 -13 -15
5 1 10 10 22 18 26 13 6 13 7 -1 7 -20 1 -20 58 1 72 13 9 13 10 -2 6 -14 -5
-16 4 -15 74 2 66 5 78 17 74 13 -4 13 -4 0 7 -20 17 -19 66 0 79 13 9 12 10
-2 5 -15 -4 -17 1 -15 34 1 31 6 39 17 35 13 -4 13 -4 0 7 -20 17 -19 66 0 79
13 9 12 10 -2 5 -15 -4 -17 2 -15 48 2 30 9 62 17 72 14 18 14 18 -3 5 -17
-14 -18 -13 -15 5 1 10 10 22 18 26 13 6 13 7 -1 7 -20 1 -20 58 1 72 13 9 13
10 -2 6 -14 -5 -16 4 -15 74 2 66 5 78 17 74 13 -4 13 -4 0 7 -20 17 -19 66 0
79 13 9 12 10 -2 5 -15 -4 -17 1 -15 34 1 31 6 39 17 35 13 -4 13 -4 0 7 -20
17 -19 66 0 79 13 9 12 10 -2 5 -15 -4 -17 2 -15 48 2 30 9 62 17 72 14 18 14
18 -3 5 -17 -14 -18 -13 -15 5 1 10 10 22 18 26 13 6 13 7 -1 7 -20 1 -20 58
1 72 13 9 13 10 -2 6 -14 -5 -16 4 -15 74 2 66 5 78 17 74 13 -4 13 -4 0 7
-20 17 -19 66 0 79 13 9 12 10 -2 5 -15 -4 -17 1 -15 34 1 31 6 39 17 35 13
-4 13 -4 0 7 -20 17 -19 66 0 79 13 9 12 10 -2 5 -15 -4 -17 2 -15 48 2 30 9
62 17 72 14 18 14 18 -3 5 -17 -14 -18 -13 -15 5 1 10 10 22 18 26 13 6 13 7
-1 7 -20 1 -20 58 1 72 13 9 13 10 -2 6 -14 -5 -16 4 -15 74 2 66 5 78 17 74
13 -4 13 -4 0 7 -20 17 -19 66 0 79 13 9 12 10 -2 5 -15 -4 -17 1 -15 34 1 31
6 39 17 35 13 -4 13 -4 0 7 -20 17 -19 66 0 79 13 9 12 10 -2 5 -15 -4 -17 2
-15 48 2 30 9 62 17 72 14 18 14 18 -3 5 -17 -14 -18 -13 -15 5 1 10 10 22 18
26 13 6 13 7 -1 7 -20 1 -20 58 1 72 13 9 13 10 -1 6 -15 -5 -17 5 -16 74 1
68 3 79 16 74 14 -4 14 -4 1 7 -20 17 -19 66 0 79 13 9 12 10 -2 5 -12 -3 -18
0 -18 9 0 8 8 19 18 25 16 11 16 11 0 6 -12 -3 -18 0 -18 10 0 8 4 13 9 10 5
-3 15 2 22 12 13 15 12 16 -3 3 -10 -7 -18 -12 -19 -10 -7 37 -8 36 74 37 65
1 83 -2 94 -16 11 -15 12 -15 7 -1 -4 14 6 17 76 18 45 1 79 -2 76 -7 -3 -5 1
-9 9 -9 8 0 12 3 10 7 -3 4 48 8 112 9 84 1 119 -3 125 -12 6 -9 8 -9 8 1 0 6
10 12 23 12 13 0 29 -6 36 -12 11 -11 12 -10 7 0 -6 10 10 12 74 11 70 -1 80
-4 76 -18 -6 -15 -5 -15 7 0 10 13 32 17 110 17 92 1 97 0 97 -20 0 -18 -2
-19 -17 -7 -17 13 -17 13 -1 -7 17 -19 18 -123 18 -1728 0 -1097 3 -1713 10
-1724 5 -10 10 -12 10 -4 0 8 15 12 45 10 37 -1 45 -4 40 -17 -4 -13 -2 -12 9
2 16 20 86 24 86 5 0 -9 2 -10 8 -2 4 7 36 12 75 12 59 0 68 -2 63 -16 -5 -15
-5 -15 7 0 11 14 29 17 93 16 43 -1 82 -7 86 -12 5 -7 8 -7 8 2 0 7 13 12 29
12 16 0 32 -6 34 -12 4 -10 6 -10 6 0 1 6 13 12 27 12 17 0 23 -4 18 -12 -6
-10 -4 -10 7 -1 17 17 96 17 102 1 4 -10 6 -10 6 0 1 6 13 12 27 12 17 0 23
-4 18 -12 -6 -10 -5 -10 7 -1 9 8 54 11 132 10 101 -1 117 -3 112 -17 -4 -11
-1 -10 9 3 16 20 86 24 86 5 0 -9 2 -10 8 -2 4 7 36 12 75 12 59 0 68 -2 63
-16 -5 -15 -5 -15 7 0 11 14 29 17 93 16 43 -1 82 -7 86 -12 5 -7 8 -7 8 2 0
7 13 12 29 12 16 0 32 -6 34 -12 4 -10 6 -10 6 0 1 6 13 12 27 12 17 0 23 -4
18 -12 -6 -10 -4 -10 7 0 7 6 32 12 55 12 25 0 44 -5 47 -12 4 -10 6 -10 6 0
1 6 13 12 27 12 17 0 23 -4 18 -12 -6 -10 -5 -10 7 -1 9 8 54 11 132 10 101
-1 117 -3 112 -17 -4 -11 -1 -10 9 3 16 20 86 24 86 5 0 -9 4 -8 10 2 9 13 11
13 20 0 6 -10 10 -11 10 -2 0 8 16 12 45 12 36 0 47 4 56 23 7 12 11 22 10 22
-1 0 2 13 8 28 6 16 11 35 11 43 0 8 4 13 9 10 5 -4 7 4 3 16 -5 21 -4 22 14
8 17 -14 18 -13 7 1 -10 12 -10 28 -2 72 7 32 16 57 21 57 5 0 7 -4 3 -9 -3
-5 -1 -12 4 -15 11 -7 9 13 -2 32 -10 14 1 55 12 48 4 -3 5 8 3 25 -2 16 0 29
5 29 6 0 9 11 8 25 -2 15 3 29 13 35 12 7 13 9 3 10 -11 0 -11 3 0 17 12 14
12 15 1 9 -11 -7 -12 -4 -3 12 6 11 14 22 18 24 5 3 3 4 -4 2 -8 -2 -9 6 -2
28 5 17 11 50 15 72 3 23 11 47 17 55 10 12 9 13 -2 6 -11 -6 -13 -4 -7 11 5
10 10 44 13 74 2 30 6 64 8 75 2 11 4 33 4 48 1 20 5 26 14 21 9 -6 9 -4 1 7
-11 15 -12 28 -3 44 7 11 3 677 -4 736 -2 20 -8 42 -12 49 -5 8 -4 11 1 7 5
-3 10 3 10 13 0 10 -4 16 -8 14 -4 -3 -8 6 -8 20 0 13 -3 32 -7 42 -5 13 -3
15 8 9 11 -7 12 -6 2 6 -10 12 -10 18 0 29 9 10 9 11 0 6 -7 -4 -13 -2 -13 3
0 18 5 26 13 23 5 -1 6 2 2 8 -3 6 -11 7 -17 4 -7 -5 -9 2 -6 19 3 15 2 28 -3
29 -4 2 -10 26 -13 53 -7 64 -10 77 -20 94 -5 8 -3 16 5 22 8 5 9 9 3 9 -11 0
-20 24 -30 80 -3 14 -9 42 -15 63 -5 20 -7 43 -3 49 4 7 3 8 -4 4 -7 -4 -12
-4 -13 1 -3 35 -14 84 -24 105 -4 10 -8 29 -9 42 0 13 -3 22 -5 20 -8 -7 -52
130 -46 144 2 7 1 11 -4 8 -5 -3 -11 1 -15 9 -3 8 0 15 7 15 7 0 4 5 -6 11
-12 7 -16 17 -11 31 4 14 2 18 -5 14 -10 -7 -15 8 -14 41 1 7 -3 10 -8 7 -5
-3 -10 0 -10 5 -3 20 -5 26 -23 63 -10 20 -14 42 -10 49 5 8 3 9 -6 4 -10 -6
-12 -3 -8 13 3 12 3 20 -1 19 -3 -1 -7 2 -8 7 -1 5 -7 12 -13 16 -7 4 -13 19
-13 33 -1 14 -5 23 -9 20 -5 -2 -8 1 -8 7 0 7 -10 26 -22 43 -12 17 -16 27 -8
22 8 -5 5 4 -8 19 -12 16 -22 35 -22 42 0 8 -4 14 -10 14 -12 0 -14 26 -2 33
4 2 1 2 -5 1 -7 -2 -17 6 -23 16 -6 11 -7 20 -3 20 4 0 0 5 -10 11 -14 8 -16
14 -6 25 9 12 9 13 -3 9 -13 -5 -28 11 -32 35 -1 3 -11 20 -24 37 -13 18 -20
37 -17 43 3 5 2 10 -3 10 -15 0 -65 78 -57 90 3 6 1 9 -5 8 -7 -2 -17 6 -23
17 -7 11 -20 30 -29 44 -10 13 -15 28 -11 34 3 5 2 7 -3 4 -6 -3 -28 19 -49
50 -22 30 -46 62 -53 69 -8 8 -11 21 -8 29 3 9 0 12 -8 9 -7 -3 -20 6 -29 19
-9 13 -22 30 -29 38 -34 35 -57 72 -51 82 3 5 2 7 -4 4 -6 -4 -27 11 -47 33
-20 22 -33 40 -29 40 4 0 -3 7 -15 16 -12 8 -19 20 -16 26 4 6 3 8 -3 5 -10
-6 -52 31 -52 46 1 5 -3 12 -7 15 -4 4 -3 0 1 -8 5 -9 0 -8 -14 4 -12 11 -19
26 -16 33 3 8 0 11 -6 7 -6 -3 -20 4 -31 15 -17 19 -18 24 -6 39 12 15 11 16
-4 4 -14 -11 -20 -10 -42 9 -14 12 -23 26 -20 31 3 4 -1 8 -8 8 -7 0 -34 19
-59 43 -48 43 -99 87 -158 135 -19 15 -43 35 -53 45 -10 9 -20 17 -23 17 -11
0 -44 34 -39 42 3 4 -2 5 -10 2 -9 -3 -16 -2 -16 4 0 5 -10 12 -22 15 -19 5
-20 8 -7 24 13 16 12 17 -3 5 -14 -11 -20 -10 -37 7 -12 12 -21 18 -21 14 0
-3 -10 3 -22 14 -13 11 -33 26 -46 32 -12 7 -20 17 -16 23 4 7 3 8 -5 4 -6 -4
-24 2 -40 13 -16 12 -34 21 -40 21 -6 0 -11 4 -11 8 0 5 -16 16 -36 25 -19 10
-32 22 -29 27 4 6 -1 7 -11 3 -13 -5 -15 -3 -9 7 5 9 4 11 -4 6 -7 -5 -28 3
-49 16 -20 13 -63 37 -94 53 -32 17 -58 37 -58 45 0 13 -1 13 -10 0 -7 -10
-13 -11 -17 -5 -5 6 -37 24 -73 39 -36 16 -68 33 -71 38 -3 5 -9 10 -12 10
-19 0 -47 11 -47 19 0 5 -7 5 -17 2 -12 -5 -14 -3 -8 7 5 8 4 11 -3 6 -13 -8
-92 22 -92 36 0 5 -5 6 -11 2 -6 -3 -21 -2 -32 4 -34 16 -133 53 -148 56 -8 1
-24 7 -35 14 -12 6 -24 8 -28 5 -3 -3 -6 -2 -6 3 0 5 -14 10 -32 11 -17 1 -36
7 -42 13 -5 5 -23 10 -38 10 -15 0 -28 4 -28 10 0 5 -3 9 -7 9 -30 -5 -74 4
-87 17 -9 8 -16 11 -16 6 0 -6 -9 -8 -20 -5 -11 3 -18 9 -15 13 3 5 0 12 -6
16 -8 5 -9 3 -4 -5 5 -10 -4 -11 -41 -6 -27 4 -55 12 -62 18 -7 5 -15 7 -18 5
-3 -3 -23 -2 -45 3 -60 14 -112 22 -132 21 -9 0 -15 3 -13 7 3 4 -14 6 -37 6
-23 -1 -46 0 -51 3 -5 3 -27 6 -50 8 -22 2 -61 6 -86 9 -52 7 -626 15 -632 10z"/>
<path d="M2609 7643 c-13 -16 -12 -17 4 -4 9 7 17 15 17 17 0 8 -8 3 -21 -13z"/>
<path d="M2615 7500 c-3 -5 -1 -10 4 -10 6 0 11 5 11 10 0 6 -2 10 -4 10 -3 0
-8 -4 -11 -10z"/>
<path d="M2615 7260 c-3 -5 -1 -10 4 -10 6 0 11 5 11 10 0 6 -2 10 -4 10 -3 0
-8 -4 -11 -10z"/>
<path d="M2609 7163 c-13 -16 -12 -17 4 -4 9 7 17 15 17 17 0 8 -8 3 -21 -13z"/>
<path d="M2615 7020 c-3 -5 -1 -10 4 -10 6 0 11 5 11 10 0 6 -2 10 -4 10 -3 0
-8 -4 -11 -10z"/>
<path d="M2615 6780 c-3 -5 -1 -10 4 -10 6 0 11 5 11 10 0 6 -2 10 -4 10 -3 0
-8 -4 -11 -10z"/>
<path d="M2609 6683 c-13 -16 -12 -17 4 -4 9 7 17 15 17 17 0 8 -8 3 -21 -13z"/>
<path d="M2615 6540 c-3 -5 -1 -10 4 -10 6 0 11 5 11 10 0 6 -2 10 -4 10 -3 0
-8 -4 -11 -10z"/>
<path d="M2615 6300 c-3 -5 -1 -10 4 -10 6 0 11 5 11 10 0 6 -2 10 -4 10 -3 0
-8 -4 -11 -10z"/>
<path d="M2609 6203 c-13 -16 -12 -17 4 -4 16 13 21 21 13 21 -2 0 -10 -8 -17
-17z"/>
<path d="M4905 6140 c-3 -6 1 -7 9 -4 18 7 21 14 7 14 -6 0 -13 -4 -16 -10z"/>
<path d="M4975 6140 c-3 -5 -1 -10 4 -10 6 0 11 5 11 10 0 6 -2 10 -4 10 -3 0
-8 -4 -11 -10z"/>
<path d="M5250 6140 c0 -5 5 -10 11 -10 5 0 7 5 4 10 -3 6 -8 10 -11 10 -2 0
-4 -4 -4 -10z"/>
<path d="M5390 6139 c0 -5 5 -7 10 -4 6 3 10 8 10 11 0 2 -4 4 -10 4 -5 0 -10
-5 -10 -11z"/>
<path d="M4556 6118 c3 -5 10 -6 15 -3 13 9 11 12 -6 12 -8 0 -12 -4 -9 -9z"/>
<path d="M4514 5949 c-3 -6 -2 -15 3 -20 5 -5 9 -1 9 11 0 23 -2 24 -12 9z"/>
<path d="M2615 5940 c-3 -5 -1 -10 4 -10 6 0 11 5 11 10 0 6 -2 10 -4 10 -3 0
-8 -4 -11 -10z"/>
<path d="M4515 5859 c-4 -6 -5 -12 -2 -15 2 -3 7 2 10 11 7 17 1 20 -8 4z"/>
<path d="M2610 5741 c0 -6 4 -13 10 -16 6 -3 7 1 4 9 -7 18 -14 21 -14 7z"/>
<path d="M4515 5619 c-4 -6 -5 -12 -2 -15 2 -3 7 2 10 11 7 17 1 20 -8 4z"/>
<path d="M2615 5460 c-3 -5 -1 -10 4 -10 6 0 11 5 11 10 0 6 -2 10 -4 10 -3 0
-8 -4 -11 -10z"/>
<path d="M2615 5300 c-3 -5 -1 -10 4 -10 6 0 11 5 11 10 0 6 -2 10 -4 10 -3 0
-8 -4 -11 -10z"/>
<path d="M4515 5219 c-4 -6 -5 -12 -2 -15 2 -3 7 2 10 11 7 17 1 20 -8 4z"/>
<path d="M2610 5101 c0 -6 4 -13 10 -16 6 -3 7 1 4 9 -7 18 -14 21 -14 7z"/>
<path d="M4515 4979 c-4 -6 -5 -12 -2 -15 2 -3 7 2 10 11 7 17 1 20 -8 4z"/>
<path d="M2615 4820 c-3 -5 -1 -10 4 -10 6 0 11 5 11 10 0 6 -2 10 -4 10 -3 0
-8 -4 -11 -10z"/>
<path d="M2610 4621 c0 -6 4 -13 10 -16 6 -3 7 1 4 9 -7 18 -14 21 -14 7z"/>
<path d="M4515 4579 c-4 -6 -5 -12 -2 -15 2 -3 7 2 10 11 7 17 1 20 -8 4z"/>
<path d="M2615 4340 c-3 -5 -1 -10 4 -10 6 0 11 5 11 10 0 6 -2 10 -4 10 -3 0
-8 -4 -11 -10z"/>
<path d="M4515 4339 c-4 -6 -5 -12 -2 -15 2 -3 7 2 10 11 7 17 1 20 -8 4z"/>
<path d="M2610 4141 c0 -6 4 -13 10 -16 6 -3 7 1 4 9 -7 18 -14 21 -14 7z"/>
<path d="M4515 3939 c-4 -6 -5 -12 -2 -15 2 -3 7 2 10 11 7 17 1 20 -8 4z"/>
<path d="M2615 3860 c-3 -5 -1 -10 4 -10 6 0 11 5 11 10 0 6 -2 10 -4 10 -3 0
-8 -4 -11 -10z"/>
<path d="M4515 3699 c-4 -6 -5 -12 -2 -15 2 -3 7 2 10 11 7 17 1 20 -8 4z"/>
<path d="M2610 3661 c0 -6 4 -13 10 -16 6 -3 7 1 4 9 -7 18 -14 21 -14 7z"/>
<path d="M2615 3380 c-3 -5 -1 -10 4 -10 6 0 11 5 11 10 0 6 -2 10 -4 10 -3 0
-8 -4 -11 -10z"/>
<path d="M4515 3299 c-4 -6 -5 -12 -2 -15 2 -3 7 2 10 11 7 17 1 20 -8 4z"/>
<path d="M735 3171 c-3 -5 -2 -12 3 -15 5 -3 9 1 9 9 0 17 -3 19 -12 6z"/>
<path d="M873 3165 c0 -8 4 -12 9 -9 5 3 6 10 3 15 -9 13 -12 11 -12 -6z"/>
<path d="M770 3159 c0 -5 5 -7 10 -4 6 3 10 8 10 11 0 2 -4 4 -10 4 -5 0 -10
-5 -10 -11z"/>
<path d="M4515 3059 c-4 -6 -5 -12 -2 -15 2 -3 7 2 10 11 7 17 1 20 -8 4z"/>
<path d="M7890 3001 c0 -6 4 -13 10 -16 6 -3 7 1 4 9 -7 18 -14 21 -14 7z"/>
<path d="M5789 2663 c-13 -16 -12 -17 4 -4 9 7 17 15 17 17 0 8 -8 3 -21 -13z"/>
<path d="M6749 2663 c-13 -16 -12 -17 4 -4 16 13 21 21 13 21 -2 0 -10 -8 -17
-17z"/>
<path d="M5590 2659 c0 -5 5 -7 10 -4 6 3 10 8 10 11 0 2 -4 4 -10 4 -5 0 -10
-5 -10 -11z"/>
<path d="M5695 2660 c-3 -5 -1 -10 4 -10 6 0 11 5 11 10 0 6 -2 10 -4 10 -3 0
-8 -4 -11 -10z"/>
<path d="M6095 2660 c-3 -5 -1 -10 4 -10 6 0 11 5 11 10 0 6 -2 10 -4 10 -3 0
-8 -4 -11 -10z"/>
<path d="M6255 2660 c-3 -5 -1 -10 4 -10 6 0 11 5 11 10 0 6 -2 10 -4 10 -3 0
-8 -4 -11 -10z"/>
<path d="M6395 2660 c-3 -5 -1 -10 4 -10 6 0 11 5 11 10 0 6 -2 10 -4 10 -3 0
-8 -4 -11 -10z"/>
<path d="M6655 2660 c-3 -5 -1 -10 4 -10 6 0 11 5 11 10 0 6 -2 10 -4 10 -3 0
-8 -4 -11 -10z"/>
<path d="M7055 2660 c-3 -5 -1 -10 4 -10 6 0 11 5 11 10 0 6 -2 10 -4 10 -3 0
-8 -4 -11 -10z"/>
<path d="M7215 2660 c-3 -5 -1 -10 4 -10 6 0 11 5 11 10 0 6 -2 10 -4 10 -3 0
-8 -4 -11 -10z"/>
<path d="M7355 2660 c-3 -5 -1 -10 4 -10 6 0 11 5 11 10 0 6 -2 10 -4 10 -3 0
-8 -4 -11 -10z"/>
<path d="M7615 2660 c-3 -5 -1 -10 4 -10 6 0 11 5 11 10 0 6 -2 10 -4 10 -3 0
-8 -4 -11 -10z"/>
<path d="M1930 2646 c0 -2 7 -7 16 -10 8 -3 12 -2 9 4 -6 10 -25 14 -25 6z"/>
<path d="M4515 2179 c-4 -6 -5 -12 -2 -15 2 -3 7 2 10 11 7 17 1 20 -8 4z"/>
<path d="M7250 1621 c0 -6 4 -13 10 -16 6 -3 7 1 4 9 -7 18 -14 21 -14 7z"/>
<path d="M6700 1020 c-12 -7 -10 -9 7 -7 12 0 19 5 17 9 -6 10 -6 10 -24 -2z"/>
<path d="M6555 900 c-3 -5 -1 -10 4 -10 6 0 11 5 11 10 0 6 -2 10 -4 10 -3 0
-8 -4 -11 -10z"/>
<path d="M6430 811 c0 -6 4 -13 10 -16 6 -3 7 1 4 9 -7 18 -14 21 -14 7z"/>
<path d="M5146 138 c3 -5 10 -6 15 -3 13 9 11 12 -6 12 -8 0 -12 -4 -9 -9z"/>
<path d="M2936 118 c3 -5 10 -6 15 -3 13 9 11 12 -6 12 -8 0 -12 -4 -9 -9z"/>
<path d="M2989 83 c-13 -16 -12 -17 4 -4 16 13 21 21 13 21 -2 0 -10 -8 -17
-17z"/>
<path d="M4873 73 c0 -9 4 -10 14 -2 7 6 13 12 13 14 0 1 -6 2 -13 2 -8 0 -14
-6 -14 -14z"/>
</g>
</svg>
