<?xml version="1.0" standalone="no"?>
<!DOCTYPE svg PUBLIC "-//W3C//DTD SVG 20010904//EN"
 "http://www.w3.org/TR/2001/REC-SVG-20010904/DTD/svg10.dtd">
<svg version="1.0" xmlns="http://www.w3.org/2000/svg"
 width="771.000000pt" height="771.000000pt" viewBox="0 0 771.000000 771.000000"
 preserveAspectRatio="xMidYMid meet">
<metadata>
Created by potrace 1.11, written by Peter Selinger 2001-2013
</metadata>
<g transform="translate(0.000000,771.000000) scale(0.100000,-0.100000)"
fill="#000000" stroke="none">
<path d="M4402 7123 c-11 -48 -37 -176 -58 -283 -21 -107 -41 -199 -45 -204
-5 -6 -78 12 -176 42 -371 113 -622 170 -953 217 -213 30 -570 62 -570 50 0
-2 27 -18 61 -35 90 -46 183 -108 294 -198 101 -81 223 -198 214 -206 -2 -2
-65 -9 -139 -16 -368 -31 -693 -84 -970 -157 -234 -61 -704 -235 -683 -253 4
-3 67 -19 138 -34 232 -49 448 -105 604 -156 167 -55 370 -146 355 -159 -5 -4
-45 -18 -89 -31 -439 -125 -897 -310 -1210 -488 -215 -122 -424 -298 -511
-429 -42 -63 -90 -183 -73 -183 5 0 39 16 75 34 195 104 424 152 600 126 154
-22 264 -68 323 -135 52 -60 48 -66 -93 -134 -136 -66 -412 -224 -497 -284
-183 -132 -231 -168 -304 -231 -336 -290 -549 -606 -640 -947 -25 -97 -55
-265 -55 -309 1 -23 4 -21 43 25 208 245 389 392 622 504 125 60 321 128 334
116 2 -2 -14 -44 -34 -92 -100 -234 -129 -306 -170 -429 -173 -518 -234 -955
-190 -1364 13 -129 33 -247 57 -335 l10 -40 35 125 c101 371 268 778 430 1049
72 119 211 325 257 379 22 27 61 73 86 103 51 62 152 163 264 264 132 119 376
274 376 239 0 -4 -29 -45 -64 -93 -163 -221 -389 -612 -516 -891 -127 -281
-233 -572 -300 -824 -38 -141 -51 -117 135 -241 245 -163 595 -313 959 -410
110 -30 409 -94 414 -90 2 2 -4 53 -12 115 -9 61 -21 204 -28 317 -14 236 -2
539 32 803 86 662 309 1315 636 1860 124 207 278 405 444 571 154 156 279 255
428 340 92 52 92 52 73 73 -29 32 -48 76 -56 129 -4 26 -11 49 -15 52 -4 2
-54 -6 -112 -20 -638 -144 -1254 -563 -1674 -1139 -113 -155 -106 -147 -98
-106 9 46 53 176 92 270 141 337 487 789 817 1069 50 42 105 89 123 106 35 31
62 51 217 158 97 67 106 72 213 132 40 22 72 43 72 46 0 14 -141 120 -230 174
-189 115 -456 236 -680 310 -47 16 -161 47 -254 70 -165 41 -168 42 -120 49
223 30 756 31 1069 1 471 -46 910 -145 1240 -281 113 -46 270 -120 335 -157
l55 -32 -40 -7 c-22 -4 -59 -7 -81 -7 -57 -1 -252 -51 -349 -90 -232 -93 -396
-266 -437 -462 -9 -45 -9 -63 2 -88 43 -105 99 -122 515 -151 307 -22 459 -60
613 -153 28 -17 52 -34 52 -37 0 -3 -71 -6 -158 -6 -134 -1 -171 -5 -257 -28
-123 -32 -260 -98 -343 -167 -116 -96 -224 -262 -267 -414 -26 -87 -16 -252
20 -360 74 -218 231 -472 464 -750 88 -105 398 -418 521 -527 219 -193 530
-422 744 -548 188 -111 417 -209 526 -226 45 -7 45 -7 24 12 -69 61 -186 199
-474 554 -52 64 -111 137 -131 161 -19 24 -88 109 -152 189 -273 341 -350 433
-428 513 -46 46 -48 47 -109 47 -181 0 -583 131 -622 203 -34 65 141 86 376
47 150 -25 237 -48 431 -111 190 -61 335 -132 409 -200 46 -42 58 -48 68 -37
7 7 34 39 61 70 26 31 63 66 82 78 93 58 101 225 18 352 -24 36 -28 38 -79 38
l-52 0 0 108 c1 129 -7 151 -35 96 -25 -50 -99 -136 -130 -153 -21 -11 -41 -7
-159 32 -151 49 -188 73 -337 213 -59 55 -84 87 -93 115 -7 26 -18 41 -32 45
-20 4 -115 -24 -198 -60 l-38 -16 -39 40 c-91 94 -89 173 4 258 69 64 145 91
277 99 l97 6 28 -47 c15 -27 50 -81 76 -121 l48 -73 52 21 c46 19 73 21 227
22 219 0 334 -19 463 -78 l88 -41 -6 -35 c-9 -49 -46 -118 -105 -196 -28 -37
-49 -69 -47 -72 16 -16 381 192 394 224 3 7 -5 24 -16 39 -42 53 -18 58 68 15
56 -29 60 -29 107 -17 296 79 766 331 752 404 -2 8 -53 32 -123 56 -512 180
-984 477 -1124 707 -27 44 -27 51 9 157 17 50 30 108 30 130 0 39 -3 43 -112
134 -125 104 -223 175 -438 319 -299 199 -451 289 -688 408 -114 57 -142 75
-138 89 9 30 76 300 76 307 0 6 -79 -35 -209 -108 -46 -26 -55 -28 -62 -15 -5
9 -28 40 -52 70 -24 29 -82 107 -130 173 -146 203 -303 415 -314 426 -8 8 -17
-15 -31 -78z m1213 -1834 c102 -38 205 -118 320 -249 72 -82 78 -90 73 -95 -6
-7 -321 49 -453 80 -241 56 -347 104 -353 158 -3 23 5 32 59 67 34 22 65 40
68 40 3 1 29 7 56 15 62 18 156 12 230 -16z"/>
<path d="M4384 4582 c-134 -80 -234 -160 -370 -296 -226 -227 -366 -436 -513
-768 -176 -397 -287 -888 -332 -1468 -15 -190 -15 -763 0 -960 17 -218 42
-444 50 -453 12 -12 273 -64 464 -92 245 -35 508 -55 737 -55 227 0 620 29
620 46 0 2 -44 63 -99 137 -54 73 -131 182 -171 242 -40 61 -89 135 -110 165
-192 283 -467 815 -588 1140 -214 572 -272 1053 -181 1480 43 200 144 433 249
575 53 72 209 255 218 255 8 1 118 100 111 100 -3 0 -41 -21 -85 -48z"/>
<path d="M4368 4278 c-87 -107 -181 -288 -217 -418 -26 -92 -51 -277 -51 -373
0 -87 24 -297 46 -404 19 -95 83 -311 128 -436 129 -354 371 -808 651 -1222
179 -265 459 -633 578 -762 l29 -31 96 33 c208 70 435 182 627 309 163 108
228 158 343 263 l83 76 -128 67 c-149 78 -348 196 -483 288 -126 86 -294 204
-300 212 -3 3 -52 41 -109 85 -445 343 -870 788 -1089 1140 -73 119 -174 329
-206 434 -79 253 -74 499 17 719 14 34 24 62 23 62 -2 0 -19 -19 -38 -42z"/>
</g>
</svg>
